<svg xmlns="http://www.w3.org/2000/svg" width="384" height="176">
    <style>
        line, path, circle, rect, polygon{stroke:black;stroke-width:2;stroke-opacity:1;fill-opacity:1;stroke-linecap:round;stroke-linejoin:miter;}text{font-family:Iosevka Fixed, monospace;font-size:14px;}rect.backdrop{stroke:none;fill:white;}.broken{stroke-dasharray:8;}.filled{fill:black;}.bg_filled{fill:white;}.nofill{fill:white;}.end_marked_arrow{marker-end:url(#arrow);}.start_marked_arrow{marker-start:url(#arrow);}.end_marked_diamond{marker-end:url(#diamond);}.start_marked_diamond{marker-start:url(#diamond);}.end_marked_circle{marker-end:url(#circle);}.start_marked_circle{marker-start:url(#circle);}.end_marked_open_circle{marker-end:url(#open_circle);}.start_marked_open_circle{marker-start:url(#open_circle);}.end_marked_big_open_circle{marker-end:url(#big_open_circle);}.start_marked_big_open_circle{marker-start:url(#big_open_circle);}
        <!--separator-->
        
    </style>
    <defs>
        <marker id="arrow" viewBox="-2 -2 8 8" refX="4" refY="2" markerWidth="7" markerHeight="7" orient="auto-start-reverse">
            <polygon points="0,0 0,4 4,2 0,0"></polygon>
        </marker>
        <marker id="diamond" viewBox="-2 -2 8 8" refX="4" refY="2" markerWidth="7" markerHeight="7" orient="auto-start-reverse">
            <polygon points="0,2 2,0 4,2 2,4 0,2"></polygon>
        </marker>
        <marker id="circle" viewBox="0 0 8 8" refX="4" refY="4" markerWidth="7" markerHeight="7" orient="auto-start-reverse">
            <circle cx="4" cy="4" r="2" class="filled"></circle>
        </marker>
        <marker id="open_circle" viewBox="0 0 8 8" refX="4" refY="4" markerWidth="7" markerHeight="7" orient="auto-start-reverse">
            <circle cx="4" cy="4" r="2" class="bg_filled"></circle>
        </marker>
        <marker id="big_open_circle" viewBox="0 0 8 8" refX="4" refY="4" markerWidth="7" markerHeight="7" orient="auto-start-reverse">
            <circle cx="4" cy="4" r="3" class="bg_filled"></circle>
        </marker>
    </defs>
    <rect class="backdrop" x="0" y="0" width="384" height="176"></rect>
    <text x="170" y="12" >JTAG</text>
    <text x="2" y="28" >USB</text>
    <text x="50" y="28" >Black</text>
    <circle cx="156" cy="24" r="3" class="nofill"></circle>
    <line x1="160" y1="24" x2="216" y2="24" class="solid"></line>
    <circle cx="220" cy="24" r="3" class="nofill"></circle>
    <text x="250" y="28" >Adafruit</text>
    <circle cx="4" cy="40" r="3" class="nofill"></circle>
    <text x="50" y="44" >Magic</text>
    <text x="146" y="44" >TX</text>
    <text x="210" y="44" >RX</text>
    <text x="250" y="44" >feather</text>
    <text x="50" y="60" >Probe</text>
    <circle cx="156" cy="56" r="3" class="nofill"></circle>
    <line x1="160" y1="56" x2="216" y2="56" class="solid"></line>
    <circle cx="220" cy="56" r="3" class="nofill"></circle>
    <text x="250" y="60" >nrf52840</text>
    <text x="146" y="76" >RX</text>
    <text x="210" y="76" >TX</text>
    <circle cx="156" cy="88" r="3" class="nofill"></circle>
    <line x1="160" y1="88" x2="216" y2="88" class="solid"></line>
    <circle cx="220" cy="88" r="3" class="nofill"></circle>
    <circle cx="260" cy="152" r="3" class="nofill"></circle>
    <text x="274" y="156" >USB</text>
    <g>
        <line x1="36" y1="8" x2="140" y2="8" class="solid"></line>
        <line x1="36" y1="8" x2="36" y2="120" class="solid"></line>
        <line x1="140" y1="8" x2="140" y2="120" class="solid"></line>
        <line x1="140" y1="24" x2="152" y2="24" class="solid"></line>
        <line x1="8" y1="40" x2="36" y2="40" class="solid"></line>
        <line x1="140" y1="56" x2="152" y2="56" class="solid"></line>
        <line x1="140" y1="88" x2="152" y2="88" class="solid"></line>
        <line x1="36" y1="120" x2="140" y2="120" class="solid"></line>
    </g>
    <g>
        <line x1="236" y1="8" x2="372" y2="8" class="solid"></line>
        <line x1="236" y1="8" x2="236" y2="120" class="solid"></line>
        <line x1="372" y1="8" x2="372" y2="120" class="solid"></line>
        <line x1="224" y1="24" x2="236" y2="24" class="solid"></line>
        <line x1="224" y1="56" x2="236" y2="56" class="solid"></line>
        <line x1="224" y1="88" x2="236" y2="88" class="solid"></line>
        <line x1="236" y1="120" x2="372" y2="120" class="solid"></line>
        <line x1="260" y1="120" x2="260" y2="148" class="solid"></line>
    </g>
</svg>